<?xml version="1.0" encoding="iso-8859-1"?>
<!-- Generator: Adobe Illustrator 19.0.0, SVG Export Plug-In . SVG Version: 6.00 Build 0)  -->
<svg version="1.1" id="Capa_1" xmlns="http://www.w3.org/2000/svg" xmlns:xlink="http://www.w3.org/1999/xlink" x="0px" y="0px"
	 viewBox="0 0 512 512" style="enable-background:new 0 0 512 512;" xml:space="preserve">
<path style="fill:#FF9052;" d="M255.12,5.857c-51.153,0-92.618,41.465-92.618,92.618v36.651c6.19-5.738,14.996-8.856,23.593-7.707
	v-4.615c0-3.669,3.132-6.567,6.765-6.292c35.809,2.573,72.252-8.806,99.806-26.807c2.573-1.682,5.979-1.263,8.069,0.983
	c23.557,25.322,23.415,24.341,23.415,27.647v9.063c9.422-1.413,17.781,1.5,23.588,6.899V98.476
	C347.738,47.323,306.274,5.857,255.12,5.857z"/>
<path style="fill:#FF8031;" d="M187.362,98.476c0-46.935,34.917-85.687,80.188-91.764c-4.068-0.546-8.212-0.854-12.429-0.854
	c-51.153,0-92.617,41.465-92.617,92.618v36.651c6.189-5.738,14.996-8.856,23.592-7.707v-4.615c0-1.425,0.477-2.73,1.267-3.781
	V98.476H187.362z"/>
<g>
	<path style="fill:#E4EAF8;" d="M322.923,123.718v50.736c0,0.55-0.029,1.094-0.042,1.641c17.954,2.719,32.016-10.254,32.016-26.187
		C354.898,133.945,340.823,121.035,322.923,123.718z"/>
	<path style="fill:#E4EAF8;" d="M187.322,174.454v-50.717c-15.631-2.087-31.975,9.909-31.975,26.17
		c0,15.912,14.03,28.908,32.015,26.186C187.349,175.547,187.322,175.001,187.322,174.454z"/>
</g>
<g>
	<path style="fill:#C2C7D0;" d="M345.384,129.63c-5.738-4.76-13.632-7.235-22.461-5.912v50.736c0,0.55-0.028,1.094-0.042,1.641
		c8.856,1.34,16.761-1.141,22.503-5.908V129.63z"/>
	<path style="fill:#C2C7D0;" d="M187.322,170.191c-5.902-4.9-9.512-12.213-9.512-20.282c0-7.85,3.815-14.701,9.512-19.457v-6.713
		c-15.631-2.087-31.975,9.909-31.975,26.17c0,15.912,14.03,28.908,32.015,26.186c-0.013-0.548-0.04-1.093-0.04-1.64V170.191z"/>
</g>
<path style="fill:#E4EAF8;" d="M256.107,241.268c-14.963,0-28.113-4.108-38.867-10.979v36.349l38.701,47.77l38.701-47.77v-37.373
	C283.678,236.826,270.403,241.268,256.107,241.268z"/>
<path style="fill:#C2C7D0;" d="M242.026,239.987c-9.226-1.712-17.55-5.076-24.785-9.699v36.349l24.785,30.593V239.987z"/>
<path style="fill:#FFFFFF;" d="M397.023,303.833l-102.381-39.65l-38.7,47.77l-38.702-47.77l-102.274,39.65
	c0,0-37.867,15.567-37.867,58.735v89.784c0,4.865,3.944,8.809,8.809,8.809h340.25c4.823,0,8.732-3.91,8.732-8.732v-89.861
	C434.89,319.401,397.023,303.833,397.023,303.833z"/>
<path style="fill:#ABFFDB;" d="M101.884,452.352V351.414c0-29.617,17.823-46.239,29.013-53.759l-15.932,6.176
	c0,0-37.867,15.567-37.867,58.735v89.784c0,4.865,3.944,8.808,8.808,8.808h24.785C105.828,461.161,101.884,457.217,101.884,452.352z
	"/>
<path style="fill:#FFFFFF;" d="M300.735,88.235c-2.091-2.246-5.497-2.665-8.069-0.983c-27.554,18-63.996,29.379-99.806,26.807
	c-3.632-0.275-6.765,2.623-6.765,6.292v55.331c0,35.562,27.864,68.042,70.012,68.042c37.519,0,68.043-30.524,68.043-68.042v-59.798
	C324.15,112.576,324.292,113.556,300.735,88.235z"/>
<path style="fill:#E4EAF8;" d="M210.881,175.681v-61.48c-5.995,0.319-12.017,0.288-18.021-0.143
	c-3.632-0.275-6.765,2.623-6.765,6.292v55.332c0,35.562,27.864,68.042,70.012,68.042c3.889,0,7.695-0.345,11.408-0.975
	C235.411,237.302,210.881,209.31,210.881,175.681z"/>
<g>
	<path style="fill:#ABFFDB;" d="M302.669,336.5l28.94-58l-36.967-14.317l-38.701,47.77l37.732,26.798
		C296.726,340.921,300.996,339.852,302.669,336.5z"/>
	<path style="fill:#ABFFDB;" d="M209.266,336.5l-28.94-58l36.967-14.317l38.701,47.77l-37.732,26.798
		C215.208,340.921,210.939,339.852,209.266,336.5z"/>
</g>
<path style="fill:#6DC296;" d="M255.991,311.987v-0.033l-0.023,0.017l-0.023-0.017v0.033l-27.444,19.49l12.972,19.524
	c10.466,0,18.525,0,28.989,0l12.972-19.524L255.991,311.987z"/>
<path style="fill:#ABFFDB;" d="M221.809,461.161h68.318l-19.664-110.16c-10.466,0-18.525,0-28.989,0L221.809,461.161z"/>
<path style="fill:#6DC296;" d="M269.7,321.723l-13.71-9.737v-0.033l-0.023,0.017l-0.024-0.017v0.033l-27.444,19.49L241.471,351
	c10.093,0,17.932,0,27.467,0l-10.651-16.031c-1.293-1.946-0.807-4.568,1.099-5.922L269.7,321.723z"/>
<path style="fill:#92E0C0;" d="M241.473,351.001L221.809,461.16h27.467l19.664-110.159
	C259.363,351.001,251.604,351.001,241.473,351.001z"/>
<g>
	<path style="fill:#FFC850;" d="M309.077,444.707c2.928-2.854,1.312-7.827-2.734-8.415l-29.166-4.238
		c-1.607-0.234-2.996-1.243-3.714-2.699l-13.043-26.429c-1.81-3.667-7.038-3.667-8.848,0l-13.043,26.429
		c-0.718,1.456-2.108,2.465-3.714,2.699l-29.166,4.238c-4.046,0.588-5.663,5.561-2.734,8.415l21.105,20.572
		c1.163,1.134,1.694,2.766,1.419,4.367l-4.982,29.049c-0.691,4.03,3.539,7.103,7.159,5.201l26.087-13.715
		c1.438-0.755,3.154-0.755,4.592,0l26.087,13.715c3.619,1.903,7.85-1.171,7.159-5.201l-4.982-29.049
		c-0.274-1.6,0.256-3.234,1.419-4.367L309.077,444.707z"/>
	<path style="fill:#FFC850;" d="M444.194,444.707c2.928-2.854,1.312-7.827-2.734-8.415l-29.166-4.238
		c-1.607-0.234-2.996-1.243-3.714-2.699l-13.043-26.429c-1.81-3.667-7.038-3.667-8.848,0l-13.043,26.429
		c-0.718,1.456-2.108,2.465-3.714,2.699l-29.166,4.238c-4.046,0.588-5.663,5.561-2.734,8.415l21.105,20.572
		c1.163,1.134,1.694,2.766,1.419,4.367l-4.982,29.049c-0.691,4.03,3.539,7.103,7.159,5.201l26.087-13.715
		c1.438-0.755,3.154-0.755,4.592,0l26.087,13.715c3.619,1.903,7.85-1.171,7.159-5.201l-4.982-29.049
		c-0.274-1.6,0.256-3.234,1.419-4.367L444.194,444.707z"/>
	<path style="fill:#FFC850;" d="M173.961,444.707c2.928-2.854,1.312-7.827-2.734-8.415l-29.166-4.238
		c-1.607-0.234-2.996-1.243-3.714-2.699l-13.043-26.429c-1.81-3.667-7.038-3.667-8.848,0l-13.043,26.429
		c-0.718,1.456-2.108,2.465-3.714,2.699l-29.166,4.238c-4.046,0.588-5.663,5.561-2.734,8.415l21.105,20.572
		c1.163,1.134,1.694,2.766,1.419,4.367l-4.982,29.049c-0.691,4.03,3.539,7.103,7.159,5.201l26.087-13.715
		c1.438-0.755,3.154-0.755,4.592,0l26.087,13.715c3.619,1.903,7.85-1.171,7.159-5.201l-4.982-29.049
		c-0.274-1.6,0.256-3.234,1.419-4.367L173.961,444.707z"/>
</g>
<g>
	<path style="fill:#FEA82F;" d="M245.501,469.646c0.274-1.6-0.256-3.234-1.419-4.367l-21.105-20.572
		c-2.928-2.854-1.312-7.827,2.734-8.415l29.166-4.238c1.607-0.234,2.996-1.243,3.714-2.699l7.435-15.065l-5.61-11.366
		c-1.81-3.667-7.038-3.667-8.848,0l-13.043,26.429c-0.718,1.456-2.108,2.465-3.714,2.699l-29.166,4.238
		c-4.046,0.588-5.663,5.56-2.734,8.415l21.105,20.572c1.163,1.134,1.694,2.766,1.419,4.367l-4.982,29.049
		c-0.691,4.03,3.539,7.103,7.159,5.201l13.207-6.943L245.501,469.646z"/>
	<path style="fill:#FEA82F;" d="M380.618,469.646c0.274-1.6-0.256-3.234-1.419-4.367l-21.105-20.572
		c-2.928-2.854-1.312-7.827,2.734-8.415l29.166-4.238c1.607-0.234,2.996-1.243,3.714-2.699l7.435-15.064l-5.61-11.366
		c-1.81-3.667-7.038-3.667-8.848,0l-13.043,26.429c-0.718,1.456-2.108,2.465-3.714,2.699l-29.166,4.238
		c-4.046,0.588-5.663,5.56-2.734,8.415l21.105,20.572c1.163,1.134,1.694,2.766,1.419,4.367l-4.982,29.049
		c-0.691,4.03,3.539,7.103,7.159,5.201l13.207-6.943L380.618,469.646z"/>
	<path style="fill:#FEA82F;" d="M110.385,469.646c0.274-1.6-0.256-3.234-1.419-4.367l-21.105-20.572
		c-2.928-2.854-1.312-7.827,2.734-8.415l29.166-4.238c1.607-0.234,2.996-1.243,3.714-2.699l7.435-15.064l-5.61-11.366
		c-1.81-3.667-7.038-3.667-8.848,0l-13.043,26.429c-0.718,1.456-2.108,2.465-3.714,2.699l-29.166,4.238
		c-4.046,0.588-5.663,5.56-2.734,8.415L88.9,465.279c1.163,1.134,1.694,2.766,1.419,4.367l-4.982,29.049
		c-0.691,4.03,3.539,7.103,7.159,5.201l13.207-6.943L110.385,469.646z"/>
</g>
<path style="fill:#474D54;" d="M452.606,437.322c-1.477-4.542-5.331-7.791-10.057-8.477l-0.126-0.018v-27.623
	c0-4.157-3.369-7.525-7.525-7.525s-7.525,3.368-7.525,7.525v25.437l-12.641-1.836l-12.441-25.207
	c-0.529-1.072-1.192-2.041-1.966-2.893c-0.096-0.106-0.195-0.211-0.295-0.314c-0.05-0.051-0.1-0.102-0.151-0.153
	c-0.101-0.101-0.205-0.2-0.31-0.297c-0.052-0.048-0.105-0.096-0.159-0.145c-2.235-1.999-5.156-3.145-8.291-3.145c0,0,0,0-0.001,0
	c-4.703,0-8.924,2.579-11.072,6.745c-0.034,0.066-0.067,0.132-0.1,0.2l-1.97,3.992v-26.182c0-4.157-3.369-7.525-7.525-7.525
	s-7.525,3.368-7.525,7.525v48.063l-23.239,3.376c-4.727,0.687-8.58,3.935-10.057,8.477c-1.477,4.543-0.269,9.437,3.152,12.773
	l9.806,9.559h-38.06l7.717-7.522l2.09-2.038c0-0.001,0.001-0.001,0.001-0.001c3.42-3.335,4.628-8.229,3.151-12.772
	c-0.392-1.207-0.952-2.322-1.651-3.322c-0.165-0.235-0.337-0.465-0.517-0.686c-0.045-0.055-0.09-0.11-0.136-0.166
	c-0.321-0.383-0.664-0.745-1.027-1.086c-0.052-0.048-0.104-0.096-0.157-0.144c-1.793-1.62-4.057-2.708-6.569-3.073l-16.563-2.406
	l-12.484-73.756l7.026-10.574l3.911,2.777c2.331,1.654,5.088,2.518,7.887,2.518c1.106,0,2.218-0.135,3.314-0.408
	c3.867-0.968,7.106-3.57,8.886-7.137l25.881-51.867l58.926,22.82c1.423,0.611,33.157,14.726,33.157,51.756v3.52
	c0,4.157,3.369,7.525,7.525,7.525s7.525-3.368,7.525-7.525v-3.52c0-47.661-40.794-64.981-42.531-65.695
	c-0.048-0.02-0.096-0.039-0.145-0.058l-97.573-37.788v-23.478c15.572-12.008,26.348-29.945,28.918-50.399
	c7.749-0.447,14.94-3.294,20.791-8.326c7.483-6.435,11.775-15.8,11.775-25.691c0-8.287-3.012-16.205-8.387-22.337V98.476
	c0-47.956-34.135-89.314-81.166-98.339c-4.085-0.785-8.026,1.89-8.808,5.972c-0.784,4.08,1.89,8.025,5.972,8.807
	c39.954,7.668,68.953,42.809,68.953,83.559v20.37c-2.733-0.901-5.594-1.467-8.538-1.684v-1.336c0.001-3.521-0.315-5.15-3.886-9.431
	c-0.13-0.156-0.265-0.315-0.403-0.479c-0.001-0.002-0.003-0.003-0.004-0.005c-2.074-2.437-5.141-5.707-9.675-10.54
	c-1.953-2.083-4.227-4.506-6.873-7.338c-0.076-0.081-0.154-0.164-0.23-0.246c-0.089-0.095-0.179-0.191-0.268-0.287
	c-1.277-1.369-2.64-2.829-4.093-4.392c-0.072-0.077-0.145-0.155-0.219-0.23c-4.474-4.596-11.467-5.508-16.957-2.25
	c-0.175,0.103-0.347,0.211-0.518,0.322c-3.098,2.024-6.27,3.937-9.504,5.739c-0.065,0.036-0.131,0.073-0.198,0.109
	c-0.265,0.147-0.531,0.294-0.797,0.439c-26.223,14.356-56.455,21.334-84.623,19.316c-3.814-0.292-7.612,1.04-10.425,3.649
	c-0.008,0.007-0.015,0.015-0.023,0.022c-0.047,0.044-0.093,0.087-0.139,0.131c-0.021,0.02-0.042,0.04-0.062,0.06
	c-0.044,0.042-0.087,0.085-0.131,0.128c-0.011,0.011-0.022,0.022-0.033,0.032c-0.053,0.053-0.105,0.106-0.158,0.161
	c-0.016,0.016-0.032,0.033-0.047,0.05c-0.044,0.046-0.088,0.093-0.131,0.139c-0.01,0.011-0.021,0.022-0.031,0.034
	c-0.051,0.055-0.101,0.11-0.15,0.167c-0.015,0.017-0.03,0.033-0.045,0.05c-0.044,0.05-0.087,0.099-0.13,0.15
	c-0.008,0.009-0.016,0.018-0.023,0.027c-0.051,0.06-0.102,0.121-0.154,0.183c-0.009,0.01-0.017,0.021-0.026,0.032
	c-0.047,0.058-0.094,0.116-0.141,0.175c-0.004,0.005-0.008,0.01-0.012,0.016c-0.051,0.065-0.102,0.131-0.154,0.198
	c-0.004,0.006-0.009,0.012-0.013,0.017c-0.048,0.063-0.095,0.127-0.142,0.192c-0.003,0.004-0.006,0.008-0.009,0.013
	c-0.05,0.068-0.099,0.137-0.148,0.207c-0.002,0.003-0.004,0.006-0.006,0.008c-0.047,0.067-0.094,0.135-0.14,0.204
	c-0.003,0.004-0.005,0.008-0.008,0.011c-0.978,1.451-1.676,3.076-2.052,4.785c-3.013,0.312-5.997,1.003-8.865,2.05V98.476
	c0-40.75,28.999-75.892,68.953-83.559c4.081-0.783,6.755-4.727,5.972-8.807c-0.784-4.081-4.729-6.756-8.808-5.972
	c-47.03,9.025-81.166,50.382-81.166,98.339v31.115c-5.434,6.076-8.382,13.586-8.382,21.544c0,9.894,4.292,19.259,11.776,25.695
	c5.847,5.029,13.035,7.873,20.784,8.32c2.019,16.228,9.209,31.283,20.75,43.136c3.036,3.118,6.318,5.941,9.81,8.455v22.289
	l-97.469,37.787c-0.047,0.019-0.094,0.037-0.141,0.057c-1.736,0.714-42.531,18.034-42.531,65.695v66.259l-0.126,0.018
	c-4.727,0.687-8.58,3.935-10.057,8.477c-1.477,4.543-0.269,9.437,3.152,12.773l20.13,19.621l-4.752,27.706
	c-0.808,4.708,1.092,9.378,4.956,12.185c3.864,2.807,8.891,3.171,13.12,0.948l24.881-13.08l24.881,13.08
	c1.839,0.967,3.83,1.444,5.81,1.444c2.572,0,5.127-0.807,7.311-2.393c3.865-2.807,5.764-7.477,4.956-12.185l-3.897-22.718h56.993
	l-3.897,22.718c-0.808,4.708,1.092,9.378,4.956,12.185c3.864,2.807,8.891,3.17,13.12,0.948L256,497.475l24.881,13.08
	c1.839,0.967,3.83,1.444,5.81,1.444c2.571,0,5.127-0.807,7.311-2.393c3.865-2.807,5.764-7.477,4.956-12.185l-3.897-22.718h56.993
	l-3.897,22.718c-0.808,4.708,1.092,9.378,4.956,12.185c3.864,2.807,8.891,3.171,13.12,0.948l24.881-13.08l24.881,13.08
	c1.839,0.967,3.83,1.444,5.81,1.444c2.572,0,5.127-0.807,7.311-2.393c3.865-2.807,5.764-7.477,4.956-12.185l-4.752-27.706
	l20.13-19.621c0-0.001,0.001-0.001,0.001-0.001C452.874,446.761,454.081,441.866,452.606,437.322z M267.173,399.597
	c-2.114-4.285-6.395-6.946-11.171-6.946c0,0,0,0-0.001,0c-4.777,0-9.058,2.661-11.172,6.945l-5.999,12.156l9.008-53.225h16.273
	l8.982,53.062L267.173,399.597z M215.265,331.654l-24.51-49.121l24.109-9.336l30.208,37.287L215.265,331.654
	c-0.013,0.01,0,0-0.013,0.01L215.265,331.654z M266.433,343.476h-20.92l-6.701-10.086l17.162-12.188l17.162,12.188L266.433,343.476z
	 M296.683,331.655L296.683,331.655C296.658,331.637,296.708,331.673,296.683,331.655l-29.841-21.196l30.201-37.279l24.15,9.352
	L296.683,331.655z M342.067,165.416c-2.923,2.513-6.486,4.061-10.386,4.563v-37.684c2.917,0.375,5.646,1.335,8.059,2.845
	c0.034,0.022,0.069,0.043,0.103,0.065c0.043,0.027,0.085,0.054,0.128,0.082c0.934,0.605,1.819,1.294,2.65,2.066
	c0.05,0.047,0.101,0.093,0.154,0.138c3.717,3.536,5.832,8.456,5.832,13.643C348.606,156.638,346.223,161.842,342.067,165.416z
	 M161.652,151.135c0-4.714,2.035-9.207,5.749-12.745c0.075-0.064,0.15-0.13,0.224-0.199c3.054-2.831,6.943-4.754,10.952-5.537
	v37.324c-3.901-0.5-7.466-2.047-10.385-4.558C164.035,161.846,161.652,156.64,161.652,151.135z M193.66,177.642
	c0.007-0.167,0.009-0.334,0.005-0.504l-0.019-0.616c-0.009-0.28-0.02-0.561-0.02-0.842V121.65
	c33.354,2.093,69.12-7.142,99.069-25.51c1.086-0.665,2.163-1.342,3.233-2.032c3.269,3.512,6.068,6.502,8.466,9.06
	c0.833,0.889,1.618,1.726,2.357,2.513c5.027,5.359,8.579,9.146,9.881,10.781v59.219c0,0.027,0,0.055,0,0.082
	c-0.002,0.242-0.011,0.483-0.019,0.723l-0.02,0.654c-0.004,0.183-0.002,0.363,0.006,0.543
	c-0.643,19.677-10.726,37.009-25.856,47.602c-0.123,0.075-0.246,0.155-0.366,0.237c-9.013,6.217-19.391,9.823-30.232,10.541
	c-0.008,0.001-0.017,0.001-0.025,0.002c-0.365,0.024-0.731,0.045-1.099,0.062c-0.02,0.001-0.04,0.002-0.06,0.003
	c-0.182,0.008-0.363,0.016-0.545,0.023c-0.003,0-0.007,0-0.01,0c-0.17,0.006-0.339,0.012-0.509,0.017
	c-0.034,0.001-0.068,0.002-0.103,0.003c-0.174,0.005-0.346,0.009-0.52,0.012c-0.014,0-0.028,0-0.042,0.001
	c-0.158,0.003-0.315,0.005-0.473,0.007c-0.043,0-0.087,0.001-0.13,0.001c-0.171,0.001-0.341,0.002-0.513,0.002h-0.001
	c-0.178,0-0.355-0.001-0.533-0.002c-0.069,0-0.138-0.001-0.208-0.002c-0.107-0.001-0.216-0.002-0.323-0.004
	c-0.082-0.001-0.164-0.002-0.246-0.004c-0.08-0.001-0.16-0.003-0.24-0.005C217.234,235.398,194.647,206.369,193.66,177.642z
	 M256.113,251.247L256.113,251.247c0.004,0,0.008,0,0.012,0c0.162,0,0.324,0,0.486-0.002c0.049,0,0.098-0.001,0.147-0.001
	c0.117-0.001,0.235-0.002,0.351-0.003c0.053-0.001,0.106-0.002,0.16-0.003c0.113-0.002,0.226-0.003,0.339-0.006
	c0.064-0.001,0.128-0.003,0.192-0.004c0.098-0.002,0.198-0.004,0.296-0.007c0.069-0.002,0.139-0.004,0.209-0.006
	c0.099-0.003,0.198-0.006,0.297-0.009c0.061-0.002,0.122-0.004,0.185-0.006c0.103-0.004,0.206-0.007,0.309-0.011
	c0.062-0.002,0.124-0.005,0.187-0.008c0.104-0.004,0.209-0.009,0.313-0.013c0.059-0.003,0.117-0.006,0.177-0.008
	c0.106-0.005,0.213-0.01,0.32-0.016c0.057-0.003,0.113-0.006,0.171-0.009c0.109-0.006,0.22-0.012,0.329-0.018
	c0.055-0.003,0.109-0.007,0.165-0.01c0.111-0.007,0.222-0.014,0.333-0.021c0.05-0.003,0.1-0.007,0.149-0.01
	c0.119-0.008,0.239-0.016,0.359-0.025c0.042-0.003,0.084-0.006,0.127-0.009c0.119-0.009,0.24-0.018,0.359-0.027
	c0.048-0.004,0.096-0.008,0.145-0.012c0.12-0.01,0.24-0.02,0.36-0.03c0.04-0.003,0.079-0.007,0.119-0.01
	c0.129-0.011,0.259-0.023,0.387-0.035c0.033-0.003,0.066-0.006,0.099-0.009c0.138-0.013,0.277-0.026,0.414-0.04
	c0.022-0.002,0.045-0.004,0.067-0.007c0.15-0.015,0.301-0.03,0.452-0.046c0.011-0.001,0.022-0.002,0.032-0.003
	c0.155-0.016,0.309-0.033,0.464-0.051c0.011-0.001,0.022-0.002,0.033-0.004c7.921-0.895,15.474-3.02,22.465-6.178v16.929
	l-31.149,38.45l-31.203-38.515v-16.323C234.416,249.141,245.024,251.247,256.113,251.247z M126.681,483.519
	c-3.629-1.906-7.963-1.905-11.594,0.001l-21.439,11.271l4.095-23.874c0.693-4.042-0.647-8.165-3.584-11.027l-17.344-16.906
	l23.974-3.483c0.295-0.043,0.587-0.096,0.876-0.16c0.037-0.008,0.073-0.016,0.11-0.025c0.108-0.025,0.217-0.051,0.324-0.078l0,0
	c2.367-0.609,4.488-1.897,6.111-3.682c0.026-0.028,0.051-0.057,0.077-0.085c0.051-0.057,0.102-0.115,0.153-0.175
	c0.675-0.785,1.258-1.659,1.727-2.61l10.719-21.721l10.719,21.719c0,0,0,0.001,0.001,0.001l0,0c0.002,0.003,0.003,0.007,0.005,0.01
	c1.603,3.242,4.523,5.605,7.977,6.52c0.457,0.121,0.923,0.217,1.397,0.286l23.971,3.483l-17.344,16.906
	c-0.044,0.043-0.087,0.086-0.13,0.129c-0.03,0.03-0.06,0.061-0.09,0.091c-0.011,0.011-0.023,0.023-0.034,0.034
	c-2.76,2.849-4.003,6.849-3.33,10.774l4.095,23.874L126.681,483.519z M169.413,459.655l7.716-7.522l2.09-2.038
	c0-0.001,0.001-0.001,0.001-0.001c3.42-3.335,4.628-8.229,3.151-12.772c-1.477-4.542-5.331-7.791-10.057-8.477l-23.237-3.376
	v-48.064c0-4.157-3.369-7.525-7.525-7.525s-7.525,3.368-7.525,7.525v26.186l-1.973-3.996c-2.11-4.275-6.377-6.934-11.142-6.945
	c-0.01,0-0.02,0-0.03,0h-0.001c-3.134,0-6.056,1.146-8.291,3.144c-0.053,0.047-0.106,0.095-0.159,0.145
	c-0.104,0.097-0.209,0.196-0.31,0.297c-0.051,0.05-0.101,0.101-0.152,0.152c-0.1,0.102-0.199,0.208-0.295,0.314
	c-0.774,0.852-1.437,1.821-1.965,2.893l-12.441,25.208l-1.627,0.237l-11.011,1.6v-64.072c0-37.038,31.265-50.949,33.157-51.756
	l58.872-22.823l25.882,51.87c1.78,3.568,5.02,6.168,8.886,7.137c1.096,0.274,2.207,0.408,3.313,0.408
	c2.799,0,5.556-0.864,7.886-2.518l3.911-2.777l7.026,10.574l-12.484,73.764l-16.508,2.399c-4.727,0.687-8.58,3.935-10.057,8.477
	c-1.477,4.543-0.269,9.437,3.152,12.773l9.806,9.559L169.413,459.655L169.413,459.655z M261.797,483.519
	c-3.629-1.906-7.963-1.905-11.594,0.001l-21.439,11.271l4.095-23.874c0.673-3.925-0.57-7.923-3.33-10.774
	c-0.007-0.007-0.014-0.014-0.021-0.021c-0.034-0.035-0.068-0.069-0.102-0.104c-0.043-0.043-0.086-0.086-0.13-0.129l-17.345-16.907
	l23.974-3.483c4.058-0.592,7.564-3.14,9.377-6.816l10.72-21.721l10.719,21.719c0.108,0.219,0.222,0.433,0.342,0.644
	c0.023,0.041,0.046,0.081,0.07,0.121c0.072,0.124,0.146,0.247,0.224,0.368c0.017,0.026,0.033,0.052,0.05,0.079
	c1.601,2.498,4.041,4.339,6.871,5.197c0.593,0.18,1.202,0.317,1.825,0.407l23.97,3.483l-17.344,16.906
	c-0.043,0.042-0.086,0.084-0.128,0.127c-0.039,0.039-0.078,0.079-0.117,0.119l-0.007,0.007c-2.761,2.849-4.005,6.85-3.332,10.776
	l4.095,23.874L261.797,483.519z M417.844,459.891c-2.937,2.863-4.277,6.985-3.584,11.027l4.095,23.874l-21.441-11.272
	c-3.63-1.907-7.964-1.906-11.593,0.001l-21.44,11.271l4.095-23.874c0.652-3.806-0.497-7.681-3.083-10.511
	c-0.007-0.007-0.014-0.015-0.021-0.022c-0.031-0.034-0.063-0.068-0.095-0.102c-0.023-0.025-0.046-0.049-0.069-0.073
	c-0.017-0.018-0.034-0.036-0.051-0.053c-0.037-0.038-0.074-0.076-0.112-0.114c-0.006-0.006-0.011-0.011-0.017-0.017
	c-0.044-0.045-0.089-0.089-0.134-0.133l-17.345-16.907l23.975-3.483c4.056-0.592,7.562-3.139,9.377-6.816l10.719-21.721
	l10.719,21.719c0,0,0,0.001,0.001,0.001l0,0c0.002,0.003,0.003,0.007,0.005,0.01c1.815,3.671,5.318,6.215,9.375,6.805l23.97,3.483
	L417.844,459.891z"/>
<g>
</g>
<g>
</g>
<g>
</g>
<g>
</g>
<g>
</g>
<g>
</g>
<g>
</g>
<g>
</g>
<g>
</g>
<g>
</g>
<g>
</g>
<g>
</g>
<g>
</g>
<g>
</g>
<g>
</g>
</svg>
