<svg id="Capa_1" enable-background="new 0 0 512 512" height="512" viewBox="0 0 512 512" width="512" xmlns="http://www.w3.org/2000/svg"><g><g><path d="m462 422h-252v80h252c22.09 0 40-17.91 40-40s-17.91-40-40-40z" fill="#b3f1ff"/><path d="m456 319.15v82.85c0 11.05-8.95 20-20 20h-40c-11.05 0-20-8.95-20-20v-82.83c0-13.06 4.31-25.72 12.19-36.14 4.56-6.03 7.81-13.24 7.81-23.6v-23.43h40v23.43c0 10.17 3.26 17.44 7.69 23.41 7.83 10.54 12.31 23.17 12.31 36.31z" fill="#d8ec84"/><path d="m396 196h40v40h-40z" fill="#ffda8f"/><path d="m396 422c22.09 0 40 17.91 40 40s-17.91 40-40 40-40-17.91-40-40 17.91-40 40-40z" fill="#fff5f5"/><path d="m336 319.15v82.85c0 11.05-8.95 20-20 20h-40c-11.05 0-20-8.95-20-20v-82.83c0-13.06 4.31-25.72 12.19-36.14 4.56-6.03 7.81-13.24 7.81-23.6v-23.43h40v23.43c0 10.17 3.26 17.44 7.69 23.41 7.83 10.54 12.31 23.17 12.31 36.31z" fill="#d8ec84"/><path d="m276 196h40v40h-40z" fill="#ffda8f"/><path d="m210 502h-200v-186h200z" fill="#ffda8f"/><path d="m190 236v40l-40 40h-80l-40-40v-40z" fill="#fff5f5"/><g fill="#ff7b79"><path d="m170 206c0 11.26-6.3 21.64-15.26 30h-89.48c-8.96-8.36-15.26-18.74-15.26-30 0-25.592 16.391-50 40-50 7.29 0 14.12 2.43 20 6.69 5.88-4.26 12.71-6.69 20-6.69 23.18 0 40 23.789 40 50z"/><path d="m150 10v40c0 22.027-17.859 40-40 40-22.116 0-40-17.949-40-40v-40z"/></g></g><g><circle cx="396" cy="462" r="10"/><circle cx="110" cy="50" r="10"/><path d="m464.26 412.057c1.123-3.146 1.74-6.531 1.74-10.057v-82.85c0-15.078-4.939-29.696-14.28-42.27-3.956-5.331-5.72-10.712-5.72-17.45v-63.43c0-5.523-4.477-10-10-10h-40c-5.523 0-10 4.477-10 10v63.43c0 6.951-1.73 12.205-5.786 17.568-9.166 12.121-14.214 27.098-14.214 42.172v82.83c0 3.506.61 6.87 1.72 10h-23.44c1.11-3.13 1.72-6.494 1.72-10v-82.85c0-15.078-4.939-29.696-14.28-42.27-3.956-5.331-5.72-10.712-5.72-17.45v-63.43c0-5.523-4.477-10-10-10h-40c-5.523 0-10 4.477-10 10v63.43c0 6.951-1.73 12.205-5.786 17.568-9.166 12.121-14.214 27.098-14.214 42.172v82.83c0 3.506.61 6.87 1.72 10h-27.72v-96c0-5.523-4.477-10-10-10h-35.857l22.929-22.929c1.875-1.875 2.929-4.419 2.929-7.071v-40c0-5.523-4.477-10-10-10h-15.028c2.976-5.817 4.657-11.843 4.966-17.94l35.609-23.74c2.782-1.854 4.453-4.977 4.453-8.32v-46c0-3.038-1.381-5.911-3.753-7.809l-61.758-49.407c3.586-7.009 5.51-14.837 5.51-22.784v-30h30c5.523 0 10-4.477 10-10s-4.477-10-10-10c-13.891 0-123.793 0-160 0-5.523 0-10 4.477-10 10s4.477 10 10 10h30v30c0 7.947 1.924 15.775 5.51 22.784l-61.757 49.407c-2.372 1.898-3.753 4.771-3.753 7.809v46c0 3.344 1.671 6.466 4.453 8.32l35.609 23.74c.309 6.098 1.989 12.123 4.966 17.94h-15.028c-5.523 0-10 4.477-10 10v40c0 2.652 1.054 5.196 2.929 7.071l22.928 22.929h-35.857c-5.523 0-10 4.477-10 10v186c0 5.523 4.477 10 10 10h55c5.523 0 10-4.477 10-10s-4.477-10-10-10h-45v-166h180v166h-45c-5.523 0-10 4.477-10 10s4.477 10 10 10h307c27.57 0 50-22.43 50-50 0-26.812-21.215-48.756-47.74-49.943zm-384.26-392.057h60v30c0 16.405-13.269 30-30 30-16.736 0-30-13.613-30-30zm-37.117 165.904-22.883-15.256v-35.842l58-46.402c8.897 7.445 20.127 11.596 32 11.596 11.877 0 23.11-4.153 32.002-11.594l57.998 46.4v35.842l-22.887 15.258c-6.917-23.325-25.523-39.906-47.113-39.906-3.38 0-6.728.411-10 1.203v-17.203c0-5.523-4.477-10-10-10s-10 4.477-10 10v17.203c-3.272-.792-6.62-1.203-10-1.203-21.596 0-40.205 16.59-47.117 39.904zm117.117 20.096c0 7.93-4.642 14.917-9.395 20h-81.21c-4.753-5.083-9.395-12.07-9.395-20 0-19.888 12.011-40 30-40 4.993 0 9.748 1.611 14.133 4.788 3.514 2.55 8.29 2.499 11.733 0 4.386-3.177 9.141-4.788 14.134-4.788 18.014 0 30 20.08 30 40zm-85.857 100-34.143-34.142v-25.858h140v25.858l-34.143 34.142zm331.857-100h20v20h-20zm-20 113.17c0-10.747 3.61-21.439 10.166-30.108 6.709-8.872 9.834-18.287 9.834-29.631v-13.431h20v13.43c0 11.003 3.16 20.61 9.663 29.373 6.762 9.104 10.337 19.597 10.337 30.347v82.85c0 5.514-4.486 10-10 10h-40c-5.514 0-10-4.486-10-10zm-100-113.17h20v20h-20zm-20 113.17c0-10.747 3.61-21.439 10.166-30.108 6.709-8.872 9.834-18.287 9.834-29.631v-13.431h20v13.43c0 11.003 3.16 20.61 9.663 29.373 6.762 9.104 10.337 19.597 10.337 30.347v82.85c0 5.514-4.486 10-10 10h-40c-5.514 0-10-4.486-10-10zm90.027 172.83h-136.027v-60.01h136.027c-6.292 8.363-10.027 18.763-10.027 30.01s3.735 21.637 10.027 30zm39.973 0c-16.542 0-30-13.458-30-30 0-16.569 13.458-30 30-30s30 13.458 30 30-13.458 30-30 30zm66 0h-26.027c6.292-8.363 10.027-18.753 10.027-30s-3.735-21.637-10.027-30h26.027c16.542 0 30 13.458 30 30s-13.458 30-30 30z"/><path d="m50 366h40c5.523 0 10-4.477 10-10s-4.477-10-10-10h-40c-5.523 0-10 4.477-10 10s4.477 10 10 10z"/><path d="m50 406h40c5.523 0 10-4.477 10-10s-4.477-10-10-10h-40c-5.523 0-10 4.477-10 10s4.477 10 10 10z"/><circle cx="110" cy="502" r="10"/></g></g></svg>