<svg height="496pt" viewBox="0 0 496 496" width="496pt" xmlns="http://www.w3.org/2000/svg"><g fill="#f0bc5e"><path d="m304 360h192v80h-192zm0 0"/><path d="m440 168c0 39.765625-32.234375 72-72 72s-72-32.234375-72-72 32.234375-72 72-72 72 32.234375 72 72zm0 0"/><path d="m211.945312 120.902344-16.234374-12.980469c-16.0625-12.84375-36.222657-19.921875-56.800782-19.921875-50.125 0-90.910156 40.785156-90.910156 90.910156v61.089844h8.183594c0-1.046875-.136719-2.070312-.03125-3.144531 1.582031-16.640625 16.511718-28.855469 33.222656-28.855469h56c14.488281 0 28.386719-5.753906 38.625-16l16 16h-1.375c16.710938 0 31.640625 12.214844 33.222656 28.855469.105469 1.074219-.03125 2.089843-.03125 3.144531h8.183594v-78.703125c0-18.082031-11.207031-34.128906-28.054688-40.394531zm0 0"/></g><path d="m304 440v40h-72v-88h-16v88h-64v-113.871094l37.617188 22.566406 9.429687-47.167968 41.945313 9.679687c18.253906 4.21875 31.007812 20.242188 31.007812 38.976563v49.816406h16v-49.816406c0-26.222656-17.847656-48.664063-43.40625-54.566406l-60.59375-13.976563v-15.761719c8.550781-6.871094 15.289062-15.894531 19.425781-26.238281 9.972657-.871094 19.390625-5.273437 26.183594-12.738281 7.558594-8.316406 11.285156-19.542969 10.207031-30.804688-1.777344-18.632812-17.25-33.546875-36.199218-35.800781l-19.617188-19.609375-5.65625 5.65625c-8.808594 8.808594-20.511719 13.65625-32.976562 13.65625h-56c-21.167969 0-39.253907 15.855469-41.191407 36.097656-1.0625 11.261719 2.65625 22.488282 10.222657 30.804688 6.785156 7.464844 16.203124 11.867187 26.175781 12.738281 4.128906 10.34375 10.867187 19.367187 19.425781 26.238281v15.761719l-60.59375 13.984375c-25.558594 5.894531-43.40625 28.335938-43.40625 54.558594v105.816406h304c8.824219 0 16-7.175781 16-16v-40h144v-16h-144c-8.824219 0-16 7.175781-16 16zm-193.824219-103.367188 19.503907 14.632813-19.71875 11.832031-4.242188-25.433594zm68.207031 26.671876-20.0625-12.039063 19.503907-14.632813 5.632812 1.296876zm45.496094-125.6875c.65625 6.878906-1.511718 13.460937-6.117187 18.527343-2.769531 3.039063-6.289063 5.167969-10.105469 6.464844.222656-2.175781.34375-4.378906.34375-6.609375v-38.28125c8.609375 3.265625 15.015625 10.839844 15.878906 19.898438zm-153.640625 18.527343c-4.605469-5.066406-6.78125-11.648437-6.125-18.519531.863281-9.058594 7.277344-16.632812 15.886719-19.898438v38.273438c0 2.230469.121094 4.433594.34375 6.609375-3.824219-1.296875-7.34375-3.425781-10.105469-6.464844zm25.761719-.144531v-40h49.367188c14.03125 0 27.359374-4.585938 38.273437-13.039062l8.359375 8.351562v44.6875c0 26.472656-21.527344 48-48 48s-48-21.527344-48-48zm48 64c8.488281 0 16.585938-1.695312 24-4.710938v8.710938l-24 18-24-18v-8.710938c7.414062 3.015626 15.511719 4.710938 24 4.710938zm-128 70.183594c0-18.734375 12.753906-34.757813 31.007812-38.976563l43.097657-9.941406 7.933593 47.636719 37.960938-22.773438v113.871094h-64v-88h-16v88h-40zm0 0"/><path d="m168 400h16v16h-16zm0 0"/><path d="m168 432h16v16h-16zm0 0"/><path d="m480 424h16v16h-16zm0 0"/><path d="m304 392h192v16h-192zm0 0"/><path d="m304 360h160v16h-160zm0 0"/><path d="m480 360h16v16h-16zm0 0"/><path d="m316.238281 258.113281c2.320313 1.335938 3.761719 3.910157 3.761719 6.726563v31.160156c0 26.472656 21.527344 48 48 48s48-21.527344 48-48v-31.160156c0-2.816406 1.472656-5.414063 3.839844-6.777344 32.175781-18.535156 52.160156-53.046875 52.160156-90.0625 0-28.574219-11.351562-55.207031-31.96875-75.007812-20.597656-19.792969-47.597656-30.039063-76.335938-28.902344-54 2.175781-98.71875 47.941406-99.6875 102.007812-.671874 37.847656 19.335938 73.101563 52.230469 92.015625zm19.761719 21.886719h64v16h-64zm8-80h-8c-4.40625 0-8-3.59375-8-8s3.59375-8 8-8 8 3.59375 8 8zm32 64h-16v-48h16zm-8 64c-11.792969 0-22-6.480469-27.550781-16h55.09375c-5.542969 9.519531-15.75 16-27.542969 16zm-3.65625-247.929688c1.230469-.046874 2.457031-.070312 3.679688-.070312 22.863281 0 44.375 8.640625 60.929687 24.527344 17.4375 16.753906 27.046875 39.296875 27.046875 63.472656 0 31.3125-16.910156 60.511719-44.144531 76.199219-7.0625 4.074219-11.449219 11.609375-11.742188 19.800781h-8.113281v-48h8c13.230469 0 24-10.769531 24-24s-10.769531-24-24-24-24 10.769531-24 24v8h-16v-8c0-13.230469-10.769531-24-24-24s-24 10.769531-24 24 10.769531 24 24 24h8v48h-8.113281c-.292969-8.191406-4.648438-15.710938-11.671875-19.753906-27.839844-16.007813-44.773438-45.839844-44.199219-77.855469.816406-45.75 38.648437-84.46875 84.328125-86.320313zm27.65625 119.929688v-8c0-4.40625 3.59375-8 8-8s8 3.59375 8 8-3.59375 8-8 8zm0 0"/><path d="m424 168h16c0-25.625-13.792969-49.519531-35.992188-62.359375l-8.015624 13.847656c17.28125 9.992188 28.007812 28.582031 28.007812 48.511719zm0 0"/><path d="m386 98.273438c-5.847656-1.511719-11.902344-2.273438-18-2.273438v16c4.753906 0 9.464844.59375 14 1.761719zm0 0"/><path d="m360 0h16v48h-16zm0 0"/><path d="m243.546875 54.867188 11.3125-11.316407 33.941406 33.941407-11.3125 11.3125zm0 0"/><path d="m447.191406 77.492188 33.941406-33.941407 11.3125 11.3125-33.941406 33.941407zm0 0"/></svg>