<svg id="Capa_1" enable-background="new 0 0 512 512" height="512" viewBox="0 0 512 512" width="512" xmlns="http://www.w3.org/2000/svg"><g><g><path d="m486.865 154.077v-36.142c0-4.908-3.979-8.887-8.887-8.887h-18.53c-3.734 0-7.1-2.324-8.344-5.845-1.148-3.246-2.46-6.414-3.929-9.493-1.609-3.372-.877-7.395 1.765-10.036l13.101-13.101c3.471-3.471 3.471-9.098 0-12.568l-25.556-25.556c-3.471-3.471-9.098-3.471-12.568 0l-13.101 13.101c-2.642 2.642-6.665 3.374-10.036 1.765-3.079-1.469-6.247-2.781-9.493-3.929-3.521-1.245-5.845-4.61-5.845-8.344v-18.53c0-4.908-3.979-8.887-8.887-8.887h-36.142c-4.908 0-8.887 3.979-8.887 8.887v18.53c0 3.734-2.324 7.1-5.845 8.344-3.246 1.148-6.414 2.46-9.493 3.929-3.372 1.609-7.395.877-10.036-1.765l-13.101-13.101c-3.471-3.471-9.098-3.471-12.568 0l-25.556 25.556c-3.471 3.471-3.471 9.098 0 12.568l13.101 13.101c2.642 2.642 3.374 6.665 1.765 10.036-1.469 3.079-2.781 6.247-3.929 9.493-1.245 3.521-4.61 5.845-8.344 5.845h-18.53c-4.908 0-8.887 3.979-8.887 8.887v36.142c0 4.908 3.979 8.887 8.887 8.887h18.53c3.734 0 7.1 2.324 8.344 5.845 1.148 3.246 2.46 6.414 3.929 9.493 1.609 3.372.877 7.395-1.765 10.036l-13.101 13.101c-3.471 3.471-3.471 9.098 0 12.568l25.556 25.556c3.471 3.471 9.098 3.471 12.568 0l13.101-13.101c2.642-2.642 6.665-3.374 10.036-1.765 3.079 1.469 6.247 2.781 9.493 3.929 3.521 1.245 5.845 4.61 5.845 8.344v18.53c0 4.908 3.979 8.887 8.887 8.887h36.142c4.908 0 8.887-3.979 8.887-8.887v-18.53c0-3.734 2.324-7.1 5.845-8.344 3.246-1.148 6.414-2.46 9.493-3.929 3.372-1.609 7.395-.877 10.036 1.765l13.101 13.101c3.471 3.471 9.098 3.471 12.568 0l25.556-25.556c3.471-3.471 3.471-9.098 0-12.568l-13.101-13.101c-2.642-2.642-3.374-6.665-1.765-10.036 1.469-3.079 2.781-6.247 3.929-9.493 1.245-3.521 4.61-5.845 8.344-5.845h18.53c4.908 0 8.887-3.978 8.887-8.887z" fill="#c5d3dd"/></g><g><path d="m390.835 227.601 1.699 1.699c-.42.16-.829.31-1.249.46-3.517 1.249-5.845 4.606-5.845 8.343v18.534c0 4.906-3.977 8.882-8.882 8.882h-19.983c4.906 0 8.882-3.977 8.882-8.882v-18.534c0-3.737 2.328-7.094 5.845-8.343 3.247-1.149 6.415-2.458 9.492-3.927 3.377-1.609 7.394-.88 10.041 1.768z" fill="#b6c4cf"/></g><g><path d="m391.285 43.383c.42.15.839.3 1.259.46l-1.708 1.709c-2.648 2.638-6.664 3.367-10.041 1.759-3.077-1.469-6.245-2.778-9.492-3.927-3.517-1.239-5.845-4.606-5.845-8.343v-18.535c0-4.906-3.977-8.882-8.882-8.882h19.983c4.906 0 8.882 3.977 8.882 8.882v18.534c-.001 3.737 2.327 7.104 5.844 8.343z" fill="#b6c4cf"/></g><g><path d="m486.864 117.93v36.149c0 4.906-3.977 8.882-8.882 8.882h-18.534c-3.737 0-7.104 2.328-8.343 5.845-1.149 3.247-2.458 6.415-3.927 9.492-1.609 3.377-.879 7.394 1.758 10.041l13.109 13.099c3.467 3.467 3.467 9.102 0 12.569l-25.558 25.558c-3.477 3.467-9.102 3.467-12.569 0l-3.707-3.707 21.851-21.851c3.467-3.467 3.467-9.102 0-12.569l-13.109-13.099c-2.638-2.648-3.367-6.664-1.758-10.041 1.469-3.077 2.778-6.245 3.927-9.492 1.239-3.517 4.606-5.845 8.343-5.845h18.534c4.906 0 8.882-3.977 8.882-8.882v-36.149c0-4.906-3.977-8.882-8.882-8.882h-18.534c-3.737 0-7.104-2.328-8.343-5.845-1.149-3.247-2.458-6.415-3.927-9.492-1.609-3.377-.879-7.394 1.758-10.042l13.109-13.099c3.467-3.467 3.467-9.092 0-12.569l-21.852-21.851 3.707-3.707c3.467-3.467 9.092-3.467 12.569 0l25.558 25.558c3.467 3.477 3.467 9.102 0 12.569l-13.109 13.099c-2.638 2.648-3.367 6.664-1.758 10.042 1.469 3.077 2.778 6.245 3.927 9.492 1.239 3.517 4.606 5.845 8.343 5.845h18.534c4.906 0 8.883 3.977 8.883 8.882z" fill="#b6c4cf"/></g><g><circle cx="358.482" cy="136.006" fill="#faf7f7" r="63.039"/></g><g><path d="m421.519 136.005c0 34.82-28.226 63.036-63.036 63.036-11.92 0-23.07-3.307-32.572-9.052 4.226.899 8.613 1.369 13.109 1.369 34.81 0 63.036-28.216 63.036-63.036 0-22.891-12.21-42.943-30.474-53.984 28.526 6.024 49.937 31.353 49.937 61.667z" fill="#ede1dd"/></g><g><path d="m433.744 504.376h-355.488c-39.081 0-70.762-31.681-70.762-70.762 0-39.081 31.681-70.762 70.762-70.762h355.489c39.081 0 70.762 31.681 70.762 70.762-.001 39.081-31.682 70.762-70.763 70.762z" fill="#c5d3dd"/></g><g><path d="m504.509 433.616c0 19.543-7.923 37.228-20.722 50.037-12.809 12.799-30.494 20.722-50.037 20.722h-21.652c19.533 0 37.228-7.923 50.038-20.722 12.799-12.809 20.722-30.494 20.722-50.037 0-39.087-31.683-70.76-70.76-70.76h21.652c39.076 0 70.759 31.673 70.759 70.76z" fill="#b6c4cf"/></g><g><g><circle cx="99.978" cy="433.614" fill="#8d9ca8" r="28.276"/></g><g><circle cx="203.993" cy="433.614" fill="#8d9ca8" r="28.276"/></g><g><circle cx="308.007" cy="433.614" fill="#8d9ca8" r="28.276"/></g><g><circle cx="412.022" cy="433.614" fill="#8d9ca8" r="28.276"/></g></g><g><g><path d="m128.259 433.616c0 15.617-12.659 28.276-28.276 28.276-8.653 0-16.406-3.887-21.582-10.022 1.159.16 2.348.24 3.557.24 15.617 0 28.276-12.659 28.276-28.276 0-6.954-2.518-13.329-6.694-18.254 13.938 1.738 24.719 13.628 24.719 28.036z" fill="#7a8c98"/></g><g><path d="m232.27 433.616c0 15.617-12.659 28.276-28.276 28.276-8.653 0-16.406-3.887-21.582-10.022 1.169.16 2.358.24 3.567.24 15.617 0 28.276-12.659 28.276-28.276 0-6.954-2.518-13.329-6.694-18.254 13.938 1.738 24.709 13.628 24.709 28.036z" fill="#7a8c98"/></g><g><path d="m336.282 433.616c0 15.617-12.659 28.276-28.276 28.276-8.653 0-16.406-3.887-21.582-10.022 1.169.16 2.358.24 3.567.24 15.617 0 28.276-12.659 28.276-28.276 0-6.954-2.518-13.329-6.694-18.254 13.938 1.738 24.709 13.628 24.709 28.036z" fill="#7a8c98"/></g><g><path d="m440.293 433.616c0 15.617-12.659 28.276-28.276 28.276-8.653 0-16.406-3.887-21.582-10.022 1.169.16 2.358.24 3.567.24 15.617 0 28.276-12.659 28.276-28.276 0-6.954-2.518-13.329-6.694-18.254 13.939 1.738 24.709 13.628 24.709 28.036z" fill="#7a8c98"/></g></g><g><path d="m355.169 362.852h-221.262v-213.431c0-4.325 3.506-7.83 7.83-7.83h205.601c4.325 0 7.83 3.506 7.83 7.83v213.431z" fill="#fccd7f"/></g><g><path d="m355.166 149.418v213.439h-19.983v-213.439c0-4.316-3.507-7.823-7.823-7.823h19.983c4.316-.001 7.823 3.506 7.823 7.823z" fill="#fbc56d"/></g><g><path d="m244.538 141.59h-26.415v58.756c0 3.48 3.679 5.728 6.776 4.141l17.516-8.979c1.333-.683 2.913-.683 4.245 0l17.516 8.979c3.096 1.587 6.776-.661 6.776-4.141v-58.756z" fill="#d8aa5e"/></g><g><path d="m270.957 141.594v58.75c0 3.477-3.687 5.735-6.784 4.146l-13.199-6.764v-56.132z" fill="#c99c56"/></g><g><path d="m281.808 325.649h-74.541c-2.476 0-4.484-2.007-4.484-4.484v-31.986c0-2.476 2.007-4.484 4.484-4.484h74.541c2.476 0 4.484 2.007 4.484 4.484v31.986c0 2.477-2.007 4.484-4.484 4.484z" fill="#d8aa5e"/></g><g><path d="m286.294 289.179v31.983c0 2.478-2.008 4.486-4.486 4.486h-20.373c2.478 0 4.486-2.008 4.486-4.486v-31.983c0-2.478-2.008-4.486-4.486-4.486h20.373c2.478 0 4.486 2.008 4.486 4.486z" fill="#c99c56"/></g><g><path d="m99.978 397.845c-19.723 0-35.769 16.046-35.769 35.769s16.046 35.769 35.769 35.769c19.724 0 35.769-16.046 35.769-35.769s-16.045-35.769-35.769-35.769zm0 56.552c-11.459 0-20.782-9.323-20.782-20.782s9.323-20.782 20.782-20.782c11.46 0 20.782 9.323 20.782 20.782s-9.322 20.782-20.782 20.782z"/><path d="m239.762 433.615c0-19.724-16.046-35.769-35.769-35.769s-35.769 16.046-35.769 35.769 16.046 35.769 35.769 35.769 35.769-16.046 35.769-35.769zm-56.551 0c0-11.459 9.323-20.782 20.782-20.782 11.46 0 20.782 9.323 20.782 20.782s-9.323 20.782-20.782 20.782c-11.46 0-20.782-9.323-20.782-20.782z"/><path d="m343.777 433.615c0-19.724-16.046-35.769-35.769-35.769s-35.769 16.046-35.769 35.769 16.046 35.769 35.769 35.769 35.769-16.046 35.769-35.769zm-56.552 0c0-11.459 9.323-20.782 20.782-20.782s20.782 9.323 20.782 20.782-9.323 20.782-20.782 20.782-20.782-9.323-20.782-20.782z"/><path d="m447.791 433.615c0-19.724-16.046-35.769-35.769-35.769-19.724 0-35.769 16.046-35.769 35.769s16.046 35.769 35.769 35.769 35.769-16.046 35.769-35.769zm-56.551 0c0-11.459 9.323-20.782 20.782-20.782s20.782 9.323 20.782 20.782-9.323 20.782-20.782 20.782c-11.46 0-20.782-9.323-20.782-20.782z"/><path d="m433.745 355.359h-71.082v-29.711c0-4.139-3.355-7.494-7.494-7.494s-7.494 3.355-7.494 7.494v29.711h-206.274v-205.938c0-.185.151-.337.337-.337h68.892v51.263c0 4.266 2.173 8.14 5.813 10.364 1.953 1.193 4.136 1.794 6.327 1.794 1.892 0 3.789-.448 5.548-1.35l16.221-8.314 16.22 8.314c3.796 1.948 8.235 1.781 11.876-.444 3.64-2.224 5.813-6.098 5.813-10.364v-51.263h68.892c.185 0 .337.151.337.337v141.564c0 4.139 3.355 7.494 7.494 7.494s7.494-3.355 7.494-7.494v-19.103h13.891c9.032 0 16.381-7.348 16.381-16.381v-18.53c0-.577.349-1.103.848-1.279 3.468-1.225 6.907-2.649 10.223-4.231.491-.232 1.097-.111 1.51.302l13.101 13.101c6.387 6.385 16.779 6.385 23.166 0l25.556-25.556c6.387-6.387 6.387-16.78 0-23.167l-13.101-13.1c-.414-.414-.535-1.022-.301-1.511 1.582-3.316 3.005-6.755 4.231-10.222.177-.5.703-.849 1.279-.849h18.53c9.032 0 16.381-7.349 16.381-16.382v-36.142c0-9.032-7.348-16.381-16.381-16.381h-18.53c-.577 0-1.103-.349-1.279-.848-1.226-3.468-2.649-6.907-4.23-10.222-.234-.491-.114-1.098.3-1.511l13.101-13.101c6.387-6.387 6.387-16.78 0-23.167l-25.556-25.556c-6.387-6.385-16.779-6.385-23.166 0l-13.103 13.101c-.414.414-1.022.537-1.512.301-3.312-1.58-6.75-3.002-10.222-4.231-.499-.177-.848-.703-.848-1.279v-18.53c0-9.032-7.349-16.382-16.381-16.382h-36.142c-9.032 0-16.381 7.349-16.381 16.382v18.529c0 .577-.349 1.103-.851 1.28-3.47 1.227-6.908 2.651-10.22 4.231-.49.232-1.097.112-1.511-.302l-13.101-13.101c-6.387-6.385-16.779-6.385-23.166 0l-25.556 25.556c-6.387 6.387-6.387 16.78 0 23.167l13.102 13.101c.413.414.534 1.021.3 1.51-1.58 3.312-3.003 6.75-4.231 10.222-.177.5-.703.849-1.279.849h-18.53c-9.032 0-16.381 7.348-16.381 16.381v16.162h-80.868c-8.45 0-15.324 6.874-15.324 15.324v205.938h-48.158c-43.151.001-78.256 35.106-78.256 78.257s35.105 78.256 78.256 78.256h34.247c4.139 0 7.494-3.355 7.494-7.494s-3.355-7.494-7.494-7.494h-34.247c-34.886 0-63.269-28.382-63.269-63.268s28.382-63.269 63.269-63.269h355.489c34.886 0 63.268 28.382 63.268 63.269 0 34.886-28.382 63.268-63.268 63.268h-286.462c-4.139 0-7.494 3.355-7.494 7.494s3.355 7.494 7.494 7.494h286.462c43.15 0 78.255-35.105 78.255-78.256s-35.105-78.256-78.255-78.256zm-86.406-221.262h-44.353c1.012-29.746 25.509-53.636 55.497-53.636 30.628 0 55.545 24.917 55.545 55.546 0 29.22-22.684 53.225-51.365 55.372v-41.958c0-8.45-6.874-15.324-15.324-15.324zm-109.746-16.162c0-.768.625-1.393 1.394-1.393h18.53c6.925 0 13.117-4.357 15.409-10.84 1.053-2.977 2.273-5.926 3.627-8.764 2.962-6.209 1.665-13.669-3.23-18.562l-13.101-13.101c-.543-.542-.543-1.427 0-1.97l25.556-25.556c.544-.543 1.428-.545 1.971 0l13.102 13.101c4.894 4.894 12.353 6.191 18.561 3.23 2.84-1.354 5.789-2.575 8.764-3.628 6.485-2.291 10.842-8.484 10.842-15.41v-18.531c0-.769.625-1.394 1.393-1.394h36.142c.768 0 1.394.625 1.394 1.394v18.529c0 6.926 4.357 13.119 10.839 15.409 2.977 1.054 5.927 2.274 8.765 3.628 6.208 2.962 13.667 1.665 18.562-3.229l13.101-13.101c.543-.545 1.427-.543 1.971 0l25.556 25.556c.544.543.544 1.428 0 1.97l-13.101 13.101c-4.894 4.893-6.193 12.353-3.23 18.562 1.356 2.842 2.576 5.791 3.627 8.764 2.292 6.484 8.485 10.84 15.41 10.84h18.53c.768 0 1.393.625 1.393 1.393v36.142c0 .769-.625 1.394-1.393 1.394h-18.53c-6.925 0-13.117 4.357-15.41 10.841-1.051 2.972-2.271 5.921-3.627 8.763-2.962 6.208-1.664 13.667 3.23 18.562l13.101 13.101c.544.542.544 1.427 0 1.97l-25.556 25.556c-.543.544-1.427.545-1.971 0l-13.101-13.1c-4.893-4.895-12.353-6.193-18.561-3.231-2.842 1.355-5.791 2.576-8.766 3.627-6.484 2.293-10.84 8.486-10.84 15.41v18.53c0 .768-.625 1.393-1.394 1.393h-13.891v-50.49c36.952-2.172 66.352-32.911 66.352-70.398 0-38.892-31.641-70.533-70.532-70.533-38.251 0-69.466 30.613-70.484 68.623h-50.405v-16.158zm-11.976 31.149h37.842v46.615l-13.38-6.858c-3.468-1.779-7.611-1.78-11.082 0l-13.38 6.858z"/><path d="m207.268 277.202c-6.604 0-11.978 5.373-11.978 11.978v31.986c0 6.604 5.373 11.977 11.978 11.977h74.541c6.604 0 11.978-5.373 11.978-11.977v-31.986c0-6.605-5.373-11.978-11.978-11.978zm71.531 40.953h-68.521v-25.966h68.521z"/></g></g></svg>