<svg id="Capa_1" enable-background="new 0 0 512 512" height="512" viewBox="0 0 512 512" width="512" xmlns="http://www.w3.org/2000/svg"><g><g><g><g><path d="m463.617 274.438c-5.083 3.435-11.212 5.441-17.81 5.441s-12.726-2.006-17.81-5.441c-19.955 1.335-35.731 17.934-35.731 38.228v7.333c0 2.314 1.876 4.19 4.19 4.19h98.701c2.314 0 4.19-1.876 4.19-4.19v-7.333c.001-20.294-15.775-36.893-35.73-38.228z" fill="#80d261"/><g><circle cx="445.807" cy="248.032" fill="#80d261" r="31.847"/></g><g><path d="m448.306 248.032c0-11.262 5.851-21.152 14.675-26.814-4.956-3.181-10.846-5.033-17.173-5.033-17.589 0-31.847 14.259-31.847 31.847s14.258 31.847 31.847 31.847c6.326 0 12.217-1.852 17.173-5.033-8.824-5.662-14.675-15.551-14.675-26.814z" fill="#68ca44"/></g></g><g><path d="m84.002 274.438c-5.083 3.435-11.212 5.441-17.81 5.441s-12.726-2.006-17.81-5.441c-19.955 1.335-35.731 17.934-35.731 38.228v7.333c0 2.314 1.876 4.19 4.19 4.19h98.701c2.314 0 4.19-1.876 4.19-4.19v-7.333c.001-20.294-15.775-36.893-35.73-38.228z" fill="#fd4755"/><g><circle cx="66.193" cy="248.032" fill="#fd4755" r="31.847"/></g><g><path d="m66 248.032c0-11.826 6.45-22.138 16.02-27.631-4.664-2.677-10.064-4.216-15.827-4.216-17.589 0-31.847 14.259-31.847 31.847s14.258 31.847 31.847 31.847c5.763 0 11.164-1.539 15.827-4.216-9.57-5.493-16.02-15.805-16.02-27.631z" fill="#fb2b3a"/></g></g></g><g><g><path d="m275.143 65.753c-5.084 3.435-11.212 5.441-17.81 5.441-6.597 0-12.726-2.006-17.81-5.441-19.955 1.335-35.731 17.934-35.731 38.228v7.333c0 2.314 1.876 4.19 4.19 4.19h98.701c2.314 0 4.19-1.876 4.19-4.19v-7.333c.001-20.294-15.775-36.893-35.73-38.228z" fill="#99e6fc"/><g><circle cx="257.333" cy="39.347" fill="#99e6fc" r="31.847"/></g><g><path d="m257 39.347c0-11.855 6.482-22.189 16.09-27.672-4.647-2.652-10.022-4.175-15.757-4.175-17.589 0-31.847 14.259-31.847 31.847 0 17.589 14.258 31.847 31.847 31.847 5.734 0 11.109-1.523 15.757-4.175-9.608-5.483-16.09-15.817-16.09-27.672z" fill="#62dbfb"/></g></g><g><path d="m275.143 454.749c-5.084 3.435-11.212 5.441-17.81 5.441-6.597 0-12.726-2.006-17.81-5.441-19.955 1.335-35.731 17.934-35.731 38.228v7.333c0 2.314 1.876 4.19 4.19 4.19h98.701c2.314 0 4.19-1.876 4.19-4.19v-7.333c.001-20.293-15.775-36.892-35.73-38.228z" fill="#fea613"/><g><circle cx="257.333" cy="428.344" fill="#fea613" r="31.847"/></g><g><path d="m257 428.344c0-11.855 6.482-22.189 16.09-27.672-4.648-2.652-10.023-4.175-15.757-4.175-17.589 0-31.847 14.258-31.847 31.847s14.258 31.847 31.847 31.847c5.734 0 11.109-1.523 15.757-4.175-9.608-5.484-16.09-15.818-16.09-27.672z" fill="#fe9901"/></g></g></g></g><g><g><path d="m347.835 259.96c-6.756.129-12.711-3.288-16.153-8.513-1.205-1.829-3.817-1.82-5.023.008-3.38 5.125-9.179 8.508-15.779 8.508s-12.399-3.384-15.779-8.508c-1.208-1.832-3.82-1.832-5.029 0-3.38 5.125-9.179 8.508-15.779 8.508s-12.399-3.384-15.779-8.508c-1.208-1.832-3.82-1.832-5.029 0-3.38 5.125-9.179 8.508-15.779 8.508s-12.399-3.384-15.779-8.508c-1.208-1.832-3.821-1.832-5.029 0-3.38 5.125-9.179 8.508-15.779 8.508s-12.399-3.384-15.779-8.508c-1.206-1.828-3.818-1.837-5.023-.008-3.442 5.224-9.397 8.642-16.153 8.513-3.241-.062-6.265-.965-8.893-2.493v96.533c0 2.761 2.239 5 5 5h191.457c2.761 0 5-2.239 5-5v-96.532c-2.627 1.527-5.651 2.431-8.893 2.492z" fill="#fff9e2"/></g><g><path d="m186.543 354v-100.928c-.427-.518-.831-1.055-1.202-1.617-1.206-1.828-3.818-1.837-5.023-.008-3.442 5.224-9.397 8.642-16.153 8.513-3.241-.062-6.265-.965-8.893-2.493v96.533c0 2.761 2.239 5 5 5h31.271c-2.761 0-5-2.239-5-5z" fill="#fff5c6"/></g><path d="m145.609 230.947v9.585c0 10.394 8.163 19.231 18.555 19.429 6.756.129 12.711-3.288 16.153-8.513 1.205-1.829 3.817-1.82 5.023.008 3.38 5.125 9.179 8.508 15.779 8.508s12.399-3.384 15.779-8.508c1.208-1.832 3.82-1.832 5.029 0 3.38 5.125 9.179 8.508 15.779 8.508s12.399-3.384 15.779-8.508c1.208-1.832 3.82-1.832 5.029 0 3.38 5.125 9.179 8.508 15.779 8.508s12.399-3.384 15.779-8.508c1.208-1.832 3.821-1.832 5.029 0 3.38 5.125 9.179 8.508 15.779 8.508s12.399-3.384 15.779-8.508c1.206-1.828 3.818-1.837 5.023-.008 3.442 5.224 9.397 8.642 16.153 8.513 10.392-.198 18.555-9.035 18.555-19.429v-9.585z" fill="#faea5e"/><g><path d="m221.121 359h69.757v-70.804c0-1.657-1.343-3-3-3h-63.757c-1.657 0-3 1.343-3 3z" fill="#01c0fa"/></g><g><path d="m255.243 285.196h-31.121c-1.657 0-3 1.343-3 3v70.804h31.121v-70.804c0-1.657 1.343-3 3-3z" fill="#08a9f1"/></g><path d="m371.326 227.072-17.229-56.517c-.409-.886-1.296-1.453-2.272-1.453h-38.659v12.438c0 1.657-1.343 3-3 3h-108.333c-1.657 0-3-1.343-3-3v-12.438h-38.659c-.976 0-1.863.567-2.272 1.453l-17.229 56.517c-.588 1.928.854 3.875 2.87 3.875h224.913c2.016 0 3.458-1.947 2.87-3.875z" fill="#fd4755"/><g><path d="m172.132 227.072 17.229-56.517c.409-.886 1.296-1.453 2.272-1.453h-31.459c-.976 0-1.863.567-2.272 1.453l-17.229 56.517c-.588 1.928.854 3.875 2.87 3.875h31.458c-2.014 0-3.456-1.947-2.869-3.875z" fill="#fb2b3a"/></g><g><path d="m310.167 184.54h-108.334c-1.657 0-3-1.343-3-3v-25.54c0-1.657 1.343-3 3-3h108.333c1.657 0 3 1.343 3 3v25.54c.001 1.657-1.343 3-2.999 3z" fill="#faea5e"/></g><g><path d="m230 181.54v-25.54c0-1.657 1.343-3 3-3h-31.167c-1.657 0-3 1.343-3 3v25.54c0 1.657 1.343 3 3 3h31.167c-1.657 0-3-1.343-3-3z" fill="#ffd600"/></g></g><g><path d="m478.277 270.224c4.334-6.322 6.877-13.965 6.877-22.192 0-21.696-17.65-39.347-39.347-39.347-2.257 0-4.467.202-6.621.568-19.454-57.176-65.481-102.154-123.305-120.159-4.311-12.508-13.888-22.583-26.078-27.555 4.335-6.322 6.877-13.965 6.877-22.192.001-21.696-17.651-39.347-39.347-39.347s-39.347 17.651-39.347 39.347c0 8.228 2.542 15.87 6.877 22.192-12.728 5.192-22.609 15.946-26.619 29.226-56 19.209-100.244 63.924-118.79 120.225-4.146-1.489-8.61-2.306-13.262-2.306-21.696 0-39.347 17.651-39.347 39.347 0 8.228 2.542 15.87 6.877 22.192-16.74 6.828-28.57 23.275-28.57 42.441v7.333c0 6.446 5.244 11.69 11.69 11.69h63.39c21.05 61.226 72.607 108.374 136.435 123.211-12.275 8.228-20.375 22.221-20.375 38.077v7.333c0 6.446 5.244 11.69 11.69 11.69h98.7c6.446 0 11.69-5.244 11.69-11.69v-7.333c0-15.37-7.614-28.986-19.262-37.301 65.42-13.914 118.463-61.659 139.891-123.987h7.999c4.143 0 7.5-3.358 7.5-7.5s-3.357-7.5-7.5-7.5h-47.232v-4.023c0-15.522 11.535-28.395 26.482-30.513 5.766 3.318 12.441 5.227 19.558 5.227s13.792-1.909 19.558-5.227c14.947 2.117 26.482 14.991 26.482 30.513v4.023h-9.848c-4.143 0-7.5 3.358-7.5 7.5s3.357 7.5 7.5 7.5h13.158c6.445 0 11.689-5.244 11.689-11.69v-7.333c.001-19.164-11.83-35.611-28.57-42.44zm-220.944-255.224c13.426 0 24.348 10.922 24.348 24.347s-10.922 24.347-24.348 24.347c-13.425 0-24.347-10.922-24.347-24.347s10.922-24.347 24.347-24.347zm-46.04 88.98c0-15.522 11.535-28.395 26.482-30.513 5.766 3.318 12.441 5.227 19.558 5.227s13.792-1.909 19.558-5.227c14.948 2.117 26.483 14.991 26.483 30.513v4.023h-92.081zm-145.101 119.705c13.426 0 24.348 10.922 24.348 24.347s-10.922 24.347-24.348 24.347c-13.425 0-24.347-10.922-24.347-24.347s10.923-24.347 24.347-24.347zm-46.04 93.004v-4.023c0-15.522 11.535-28.395 26.482-30.513 5.766 3.318 12.441 5.227 19.558 5.227s13.792-1.909 19.558-5.227c14.948 2.117 26.483 14.991 26.483 30.513v4.023zm283.222 176.288v4.023h-92.081v-4.023c0-15.522 11.535-28.395 26.482-30.513 5.766 3.318 12.441 5.227 19.558 5.227s13.792-1.909 19.558-5.227c14.948 2.118 26.483 14.991 26.483 30.513zm-70.388-64.633c0-13.425 10.922-24.348 24.347-24.348 13.426 0 24.348 10.922 24.348 24.348s-10.922 24.347-24.348 24.347c-13.425 0-24.347-10.922-24.347-24.347zm180.351-158.119c-16.739 6.828-28.57 23.275-28.57 42.441v7.333c0 6.446 5.244 11.69 11.689 11.69h26.586c-20.947 55.477-69.35 97.564-128.564 109.611 1.42-4.06 2.202-8.418 2.202-12.956 0-21.696-17.651-39.348-39.348-39.348s-39.347 17.651-39.347 39.348c0 4.14.647 8.132 1.838 11.883-56.963-13.329-103.269-54.609-123.632-108.538h19.35c6.446 0 11.69-5.244 11.69-11.69v-7.333c0-19.166-11.831-35.613-28.571-42.441 4.335-6.322 6.877-13.965 6.877-22.192 0-11.508-4.967-21.877-12.868-29.078 15.703-51.064 54.223-92.216 103.621-111.505v3.865c0 6.446 5.244 11.69 11.69 11.69h98.7c6.446 0 11.69-5.244 11.69-11.69v-5.57c50.142 17.97 89.738 58.245 106.778 108.818-11.207 6.942-18.692 19.346-18.692 33.471.004 8.226 2.547 15.869 6.881 22.191zm32.471 2.154c-13.426 0-24.348-10.922-24.348-24.347s10.922-24.347 24.348-24.347c13.425 0 24.347 10.922 24.347 24.347s-10.923 24.347-24.347 24.347z"/><path d="m361.271 168.368c-.1-.327-.222-.647-.365-.958-1.63-3.528-5.194-5.807-9.081-5.807h-31.159v-5.603c0-5.79-4.71-10.5-10.5-10.5h-21.166c-4.143 0-7.5 3.358-7.5 7.5s3.357 7.5 7.5 7.5h16.666v16.54h-99.332v-16.54h47.666c4.143 0 7.5-3.358 7.5-7.5s-3.357-7.5-7.5-7.5h-52.166c-5.79 0-10.5 4.71-10.5 10.5v5.602h-31.159c-3.887 0-7.451 2.279-9.081 5.807-.144.311-.266.631-.365.958l-17.229 56.517c-.966 3.168-.366 6.649 1.604 9.312.819 1.106 1.851 2.014 3.005 2.713v3.624c0 8.302 3.775 15.791 9.662 20.753v92.714c0 6.893 5.607 12.5 12.5 12.5h191.457c6.893 0 12.5-5.607 12.5-12.5v-92.716c5.887-4.962 9.662-12.45 9.662-20.753v-3.624c1.154-.699 2.186-1.606 3.005-2.713 1.971-2.662 2.57-6.143 1.604-9.31zm-12.042 183.132h-50.85v-14.5c0-4.142-3.357-7.5-7.5-7.5s-7.5 3.358-7.5 7.5v14.5h-54.758v-58.804h54.758v9.304c0 4.142 3.357 7.5 7.5 7.5s7.5-3.358 7.5-7.5v-13.804c0-5.79-4.71-10.5-10.5-10.5h-63.758c-5.79 0-10.5 4.71-10.5 10.5v63.304h-50.85v-84.097c.414.028.831.048 1.25.056 7.11.151 13.824-2.547 18.809-7.361 4.864 4.685 11.38 7.366 18.29 7.366 6.912 0 13.429-2.682 18.293-7.369 4.864 4.687 11.381 7.369 18.294 7.369 6.912 0 13.429-2.683 18.293-7.369 4.864 4.687 11.381 7.369 18.293 7.369 6.913 0 13.43-2.682 18.294-7.369 4.864 4.687 11.381 7.369 18.293 7.369 6.91 0 13.426-2.681 18.29-7.366 4.865 4.698 11.368 7.366 18.294 7.366.171 0 .344-.001.515-.005.419-.008.836-.028 1.25-.056zm9.662-110.968c0 6.46-5.023 11.813-11.198 11.93-.073.001-.147.002-.222.002-3.849 0-7.396-1.911-9.525-5.143-1.955-2.968-5.231-4.74-8.765-4.741-.001 0-.002 0-.003 0-3.537 0-6.818 1.774-8.779 4.745-2.122 3.218-5.681 5.139-9.519 5.139s-7.396-1.921-9.519-5.138c-1.959-2.971-5.239-4.744-8.775-4.744-3.535 0-6.815 1.773-8.774 4.744-2.122 3.217-5.681 5.138-9.519 5.138s-7.396-1.92-9.518-5.138c-1.959-2.971-5.24-4.744-8.775-4.744s-6.816 1.773-8.775 4.744c-2.122 3.217-5.68 5.138-9.518 5.138s-7.396-1.92-9.519-5.138c-1.959-2.971-5.239-4.744-8.774-4.744-3.536 0-6.816 1.773-8.775 4.743-2.122 3.218-5.681 5.139-9.519 5.139s-7.396-1.921-9.519-5.138c-1.961-2.972-5.242-4.746-8.779-4.746-.001 0-.002 0-.003 0-3.533.001-6.81 1.773-8.765 4.742-2.129 3.232-5.677 5.142-9.525 5.142-.074 0-.148 0-.222-.002-6.175-.118-11.198-5.47-11.198-11.93v-2.085h205.781v2.085zm-209.271-17.085 14.279-46.845h27.435v4.938c0 5.79 4.71 10.5 10.5 10.5h108.332c5.79 0 10.5-4.71 10.5-10.5v-4.938h27.435l14.279 46.845z"/></g></g></svg>