<svg id="Layer_35" enable-background="new 0 0 64 64" height="512" viewBox="0 0 64 64" width="512" xmlns="http://www.w3.org/2000/svg"><path d="m46 2v4h-2-12-12-2v-4z" fill="#ccd1d9"/><path d="m22 15v1h-.6-19.4l6-6h12z" fill="#aab2bd"/><path d="m62 16h-19.4-.6v-1l2-5h12z" fill="#aab2bd"/><path d="m42 16h20v14h-20z" fill="#ccd1d9"/><path d="m2 16h20v14h-20z" fill="#ccd1d9"/><g fill="#cf9e76"><path d="m10 22v8h-4v-8c0-.55.22-1.05.59-1.41.36-.37.86-.59 1.41-.59 1.1 0 2 .9 2 2z"/><path d="m18 22v8h-1.88-2.12v-8c0-.55.22-1.05.59-1.41.36-.37.86-.59 1.41-.59 1.1 0 2 .9 2 2z"/><path d="m58 22v8h-4v-8c0-.55.22-1.05.59-1.41.36-.37.86-.59 1.41-.59 1.1 0 2 .9 2 2z"/><path d="m50 22v8h-2.12-1.88v-8c0-.55.22-1.05.59-1.41.36-.37.86-.59 1.41-.59 1.1 0 2 .9 2 2z"/></g><path d="m32 6h-12v4l2 5v1 14h10 10v-14-1l2-5v-4z" fill="#fcd770"/><path d="m36 51v7c0 1.1-.45 2.1-1.17 2.83-.73.72-1.73 1.17-2.83 1.17-2.21 0-4-1.79-4-4v-10h1 6 1z" fill="#cf9e76"/><path d="m35 43.72v4.28h-6v-4.28c.97.18 1.97.28 3 .28s2.03-.1 3-.28z" fill="#ccd1d9"/><path d="m46 30h1.88c-.87 6.9-6.12 12.43-12.88 13.71v.01c-.97.18-1.97.28-3 .28s-2.03-.1-3-.28v-.01c-2.49-.47-4.77-1.51-6.71-3-3.32-2.54-5.62-6.35-6.17-10.71h1.88 2.17c.95 5.68 5.88 10 11.83 10s10.88-4.32 11.83-10z" fill="#fcd770"/><path d="m42 30h1.83c-.95 5.68-5.88 10-11.83 10s-10.88-4.32-11.83-10h1.83 10z" fill="#69d6f4"/><path d="m48.717 31h14.283v-15.414l-6.586-6.586h-11.414v-2h2v-6h-30v6h2v2h-11.414l-6.586 6.586v15.414h14.283c.694 3.896 2.691 7.306 5.52 9.783l-17.51 17.51 1.414 1.414 17.697-17.698c1.68 1.152 3.569 2.005 5.596 2.496v2.495h-1v11c0 2.757 2.243 5 5 5s5-2.243 5-5v-4.586l4 4 17-17v5.586h2v-9h-9v2h5.586l-15.586 15.586-4-4v-3.586h-1v-2.494c6.444-1.564 11.523-6.807 12.717-13.506zm.283-2h-2v-7c0-.552.449-1 1-1s1 .448 1 1zm8 0h-2v-7c0-.552.449-1 1-1s1 .448 1 1zm2 0v-7c0-1.654-1.346-3-3-3s-3 1.346-3 3v7h-2v-7c0-1.654-1.346-3-3-3s-3 1.346-3 3v7h-2v-12h18v12zm-16.42 2c-1.318 4.698-5.59 8-10.58 8s-9.262-3.302-10.58-8zm17.006-16h-16.509l1.6-4h10.909zm-40.586-12h26v2h-26zm24 4v2.808l-2 5v14.192h-18v-14.192l-2-5v-2.808zm-34.586 4h10.909l1.6 4h-16.509zm-5.414 6h18v12h-2v-7c0-1.654-1.346-3-3-3s-3 1.346-3 3v7h-2v-7c0-1.654-1.346-3-3-3s-3 1.346-3 3v7h-2zm14 12h-2v-7c0-.552.449-1 1-1s1 .448 1 1zm-8 0h-2v-7c0-.552.449-1 1-1s1 .448 1 1zm8.31 2h2.049c1.372 5.841 6.553 10 12.641 10s11.269-4.159 12.642-10h2.049c-1.403 6.914-7.523 12-14.691 12s-13.287-5.086-14.69-12zm17.69 27c0 1.654-1.346 3-3 3s-3-1.346-3-3v-9h6zm-1-11h-4v-2.132c.658.078 1.323.132 2 .132s1.342-.054 2-.132z"/><path d="m32 23c-1.103 0-2-.897-2-2h-2c0 1.859 1.28 3.411 3 3.858v2.142h2v-2h3v-4c0-2.206-1.794-4-4-4-1.103 0-2-.897-2-2v-2h2c1.103 0 2 .897 2 2h2c0-1.859-1.28-3.411-3-3.858v-2.142h-2v2h-3v4c0 2.206 1.794 4 4 4 1.103 0 2 .897 2 2v2z"/><path d="m31 55h2v2h-2z"/><path d="m31 51h2v2h-2z"/></svg>